<?xml version="1.0" encoding="UTF-8"?>
<!-- Created with Inkscape (http://www.inkscape.org/) -->
<svg width="512" height="512" version="1.1" viewBox="0 0 512 512" xml:space="preserve" xmlns="http://www.w3.org/2000/svg" xmlns:xlink="http://www.w3.org/1999/xlink"><defs><linearGradient id="linearGradient2" x1="256" x2="256" y1="462.12" y2="49.88" gradientTransform="matrix(1.242 0 0 1.242 -61.951 -61.951)" gradientUnits="userSpaceOnUse"><stop stop-color="#145ddd" offset="0"/><stop stop-color="#15b6ed" offset="1"/></linearGradient><filter id="filter69" x="-.062432" y="-.16494" width="1.127" height="1.365" color-interpolation-filters="sRGB"><feFlood flood-color="rgb(28,32,55)" flood-opacity=".22745" in="SourceGraphic" result="flood"/><feGaussianBlur in="SourceGraphic" result="blur" stdDeviation="5.000000"/><feOffset dx="5.718215" dy="7.305053" in="blur" result="offset"/><feComposite in="flood" in2="offset" operator="in" result="comp1"/><feComposite in="SourceGraphic" in2="comp1" result="fbSourceGraphic"/><feColorMatrix in="fbSourceGraphic" result="fbSourceGraphicAlpha" values="0 0 0 -1 0 0 0 0 -1 0 0 0 0 -1 0 0 0 0 1 0"/><feFlood flood-color="rgb(44,149,232)" flood-opacity=".41176" in="fbSourceGraphic" result="flood"/><feGaussianBlur in="fbSourceGraphic" result="blur" stdDeviation="2.000000"/><feOffset dx="-4.981990" dy="-3.076324" in="blur" result="offset"/><feComposite in="flood" in2="offset" operator="out" result="comp1"/><feComposite in="comp1" in2="fbSourceGraphic" operator="atop" result="comp2"/></filter></defs><rect x="-2.403e-6" y="-2.403e-6" width="512" height="512" ry="114.01" fill="url(#linearGradient2)"/><path transform="matrix(1.242 0 0 1.242 85.808 40.6)" d="m-27.65 231.58h17.904c3.8411 0 6.25-2.3437 6.25-6.1198 0-3.7109-2.4088-5.9896-6.25-5.9896h-12.044v-89.844h12.044c3.8411 0 6.25-2.2786 6.25-6.1198 0-3.7109-2.4088-5.9896-6.25-5.9896h-17.904c-6.0547 0-9.7656 3.7109-9.7656 9.7656v94.531c0 6.0547 3.7109 9.7656 9.7656 9.7656zm62.239-18.75c20.247 0 33.398-13.477 33.398-35.872 0-22.331-13.281-35.937-33.398-35.937s-33.398 13.672-33.398 35.937c0 22.396 13.151 35.872 33.398 35.872zm0-12.825c-10.286 0-16.927-8.3333-16.927-23.047 0-14.648 6.7057-23.047 16.927-23.047 10.286 0 16.927 8.3984 16.927 23.047 0 14.714-6.6406 23.047-16.927 23.047zm52.148 12.76c4.6875 0 8.0078-2.9297 8.0078-8.138v-4.9479h0.32552c4.1016 8.0078 11.849 12.891 21.94 12.891 17.513 0 28.516-13.542 28.516-35.612 0-22.07-11.068-35.677-28.45-35.677-9.8307 0-17.643 4.9479-21.615 13.021h-0.39062v-29.557c0-5.4687-3.3203-8.5286-8.0729-8.5286s-8.138 3.0599-8.138 8.5286v79.883c0 5.2734 3.1901 8.138 7.8776 8.138zm25.325-13.477c-10.026 0-17.057-8.789-17.057-22.331 0-13.411 7.0312-22.331 17.057-22.331 10.352 0 16.862 8.6588 16.862 22.331 0 13.737-6.5104 22.331-16.862 22.331zm52.279-66.536c5.0781 0 9.0494-3.9062 9.0494-8.789 0-4.9479-3.9713-8.789-9.0494-8.789-5.013 0-9.0495 3.8411-9.0495 8.789 0 4.8828 4.0364 8.789 9.0495 8.789zm0 8.3333c-4.7526 0-8.138 3.125-8.138 8.5286v65.104c0 4.9479-1.6927 7.487-6.25 8.2031l-0.71614 0.13021c-3.9714 0.65104-5.7943 2.6042-5.7943 5.7942 0 4.2969 3.6458 6.8359 9.7656 6.8359h0.26042c11.784 0 18.945-7.1614 18.945-19.857v-66.146c0-5.4687-3.3203-8.5937-8.0729-8.5937zm78.841 71.745c13.021 0 24.479-6.7057 28.32-16.146 0.65104-1.5625 0.97656-2.9297 0.97656-4.1667 0-4.0364-2.9948-6.6406-6.8359-6.6406-3.5156 0-5.2734 1.3672-7.487 5.013-3.125 5.5338-7.5521 8.8542-14.714 8.8542-10.286 0-16.992-8.4635-16.992-22.786 0-14.128 6.6406-22.786 17.057-22.786 6.7057 0 11.263 2.9948 14.714 9.3099 1.888 3.2552 3.8411 4.6224 7.0963 4.6224 3.9062 0 6.9661-2.474 6.9661-6.5104 0-1.1719-0.32552-2.539-0.84635-3.9062-3.3203-9.7005-14.844-16.667-28.385-16.667-20.117 0-33.073 13.997-33.073 36.003 0 22.135 13.021 35.807 33.203 35.807zm58.528 18.75c6.1198 0 9.7656-3.7109 9.7656-9.7656v-94.531c0-6.0547-3.6458-9.7656-9.7656-9.7656h-17.904c-3.776 0-6.25 2.2786-6.25 5.9896 0 3.8411 2.474 6.1198 6.25 6.1198h12.109v89.844h-12.109c-3.776 0-6.25 2.2786-6.25 5.9896 0 3.776 2.474 6.1198 6.25 6.1198z" fill="#fff" filter="url(#filter69)" stroke-width="4.0258" style="white-space:pre" aria-label="[obj c]"/></svg>
