<?xml version="1.0" encoding="UTF-8" standalone="no"?>
<!-- Created with Inkscape (http://www.inkscape.org/) -->

<svg
   width="512"
   height="512"
   viewBox="0 0 512 512"
   version="1.1"
   id="svg1"
   sodipodi:docname="objective_c_INKSCAPE.svg"
   inkscape:version="1.3.2 (091e20e, 2023-11-25)"
   xml:space="preserve"
   inkscape:export-filename="./objective_c_512.png"
   inkscape:export-xdpi="96.000008"
   inkscape:export-ydpi="96.000008"
   xmlns:inkscape="http://www.inkscape.org/namespaces/inkscape"
   xmlns:sodipodi="http://sodipodi.sourceforge.net/DTD/sodipodi-0.dtd"
   xmlns:xlink="http://www.w3.org/1999/xlink"
   xmlns="http://www.w3.org/2000/svg"
   xmlns:svg="http://www.w3.org/2000/svg"><sodipodi:namedview
     id="namedview1"
     pagecolor="#505050"
     bordercolor="#ffffff"
     borderopacity="1"
     inkscape:showpageshadow="0"
     inkscape:pageopacity="0"
     inkscape:pagecheckerboard="1"
     inkscape:deskcolor="#505050"
     inkscape:zoom="1.1117597"
     inkscape:cx="234.76297"
     inkscape:cy="304.47228"
     inkscape:window-width="1920"
     inkscape:window-height="1011"
     inkscape:window-x="0"
     inkscape:window-y="0"
     inkscape:window-maximized="1"
     inkscape:current-layer="layer1" /><defs
     id="defs1"><rect
       x="-212.76799"
       y="88.415577"
       width="699.6627"
       height="177.78685"
       id="rect4" /><linearGradient
       id="linearGradient1"
       inkscape:collect="always"><stop
         style="stop-color:#145ddd;stop-opacity:1;"
         offset="0"
         id="stop1" /><stop
         style="stop-color:#15b6ed;stop-opacity:1;"
         offset="1"
         id="stop2" /></linearGradient><filter
       style="color-interpolation-filters:sRGB"
       id="filter3"
       x="-0.058823884"
       y="-0.058823884"
       width="1.1176478"
       height="1.1176478"><feGaussianBlur
         stdDeviation="10.213423"
         id="feGaussianBlur3" /></filter><linearGradient
       inkscape:collect="always"
       xlink:href="#linearGradient1"
       id="linearGradient2"
       x1="256"
       y1="462.11972"
       x2="256"
       y2="49.88028"
       gradientUnits="userSpaceOnUse"
       gradientTransform="matrix(1.2419966,0,0,1.2419966,-61.95114,-61.95114)" /><filter
       style="color-interpolation-filters:sRGB;"
       inkscape:label="Drop Shadow"
       id="filter69"
       x="-0.062431835"
       y="-0.16493848"
       width="1.1269738"
       height="1.364968"><feFlood
         result="flood"
         in="SourceGraphic"
         flood-opacity="0.227451"
         flood-color="rgb(28,32,55)"
         id="feFlood68" /><feGaussianBlur
         result="blur"
         in="SourceGraphic"
         stdDeviation="5.000000"
         id="feGaussianBlur68" /><feOffset
         result="offset"
         in="blur"
         dx="5.718215"
         dy="7.305053"
         id="feOffset68" /><feComposite
         result="comp1"
         operator="in"
         in="flood"
         in2="offset"
         id="feComposite68" /><feComposite
         result="fbSourceGraphic"
         operator="over"
         in="SourceGraphic"
         in2="comp1"
         id="feComposite69" /><feColorMatrix
         result="fbSourceGraphicAlpha"
         in="fbSourceGraphic"
         values="0 0 0 -1 0 0 0 0 -1 0 0 0 0 -1 0 0 0 0 1 0"
         id="feColorMatrix121" /><feFlood
         id="feFlood121"
         result="flood"
         in="fbSourceGraphic"
         flood-opacity="0.411765"
         flood-color="rgb(44,149,232)" /><feGaussianBlur
         id="feGaussianBlur121"
         result="blur"
         in="fbSourceGraphic"
         stdDeviation="2.000000" /><feOffset
         id="feOffset121"
         result="offset"
         in="blur"
         dx="-4.981990"
         dy="-3.076324" /><feComposite
         id="feComposite121"
         result="comp1"
         operator="out"
         in="flood"
         in2="offset" /><feComposite
         id="feComposite122"
         result="comp2"
         operator="atop"
         in="comp1"
         in2="fbSourceGraphic" /></filter></defs><g
     inkscape:groupmode="layer"
     id="layer1"
     inkscape:label="BG"><rect
       style="display:inline;fill:url(#linearGradient2);fill-opacity:1;stroke-width:1"
       id="rect17561"
       width="511.99997"
       height="511.99997"
       x="-2.4030091e-06"
       y="-2.4030091e-06"
       ry="114.0089"
       inkscape:label="rect" /></g><g
     inkscape:groupmode="layer"
     id="layer3"
     inkscape:label="Text"><path
       d="m -27.649644,231.58248 h 17.9036 c 3.841136,0 6.249984,-2.34374 6.249984,-6.11977 0,-3.71093 -2.408848,-5.98957 -6.249984,-5.98957 h -12.04424 v -89.84352 h 12.04424 c 3.841136,0 6.249984,-2.27864 6.249984,-6.11978 0,-3.71093 -2.408848,-5.98957 -6.249984,-5.98957 h -17.9036 c -6.054672,0 -9.7656,3.71093 -9.7656,9.7656 v 94.53101 c 0,6.05467 3.710928,9.7656 9.7656,9.7656 z m 62.239425,-18.74995 c 20.247344,0 33.398352,-13.47653 33.398352,-35.8723 0,-22.33068 -13.281216,-35.93741 -33.398352,-35.93741 -20.117136,0 -33.3983523,13.67184 -33.3983523,35.93741 0,22.39577 13.1510083,35.8723 33.3983523,35.8723 z m 0,-12.82549 c -10.286432,0 -16.92704,-8.33331 -16.92704,-23.04681 0,-14.6484 6.705712,-23.04682 16.92704,-23.04682 10.286432,0 16.92704,8.39842 16.92704,23.04682 0,14.7135 -6.640608,23.04681 -16.92704,23.04681 z m 52.148306,12.76039 c 4.687488,0 8.007792,-2.92968 8.007792,-8.138 v -4.94791 h 0.32552 c 4.101552,8.00779 11.848931,12.89059 21.940051,12.89059 17.51297,0 28.51555,-13.54163 28.51555,-35.61188 0,-22.07026 -11.06768,-35.677 -28.45045,-35.677 -9.8307,0 -17.643183,4.94791 -21.614527,13.0208 h -0.390624 v -29.55721 c 0,-5.46874 -3.320304,-8.52863 -8.072896,-8.52863 -4.752592,0 -8.138,3.05989 -8.138,8.52863 v 79.88261 c 0,5.27342 3.190096,8.138 7.877584,8.138 z M 112.06354,199.2909 c -10.02601,0 -17.057245,-8.78904 -17.057245,-22.33067 0,-13.41143 7.031235,-22.33068 17.057245,-22.33068 10.35154,0 16.86194,8.65884 16.86194,22.33068 0,13.73694 -6.5104,22.33067 -16.86194,22.33067 z m 52.27852,-66.53629 c 5.07811,0 9.04945,-3.90624 9.04945,-8.78904 0,-4.9479 -3.97134,-8.78904 -9.04945,-8.78904 -5.01301,0 -9.04946,3.84114 -9.04946,8.78904 0,4.8828 4.03645,8.78904 9.04946,8.78904 z m 0,8.33331 c -4.7526,0 -8.138,3.12499 -8.138,8.52863 v 65.104 c 0,4.9479 -1.69271,7.48696 -6.24999,8.2031 l -0.71614,0.13021 c -3.97135,0.65104 -5.79426,2.60416 -5.79426,5.79425 0,4.29687 3.64582,6.83592 9.7656,6.83592 h 0.26042 c 11.78382,0 18.94526,-7.16144 18.94526,-19.85672 v -66.14566 c 0,-5.46874 -3.3203,-8.59373 -8.07289,-8.59373 z m 78.84095,71.74461 c 13.0208,0 24.47911,-6.70571 28.32024,-16.14579 0.65104,-1.5625 0.97656,-2.92968 0.97656,-4.16666 0,-4.03645 -2.99478,-6.64061 -6.83592,-6.64061 -3.51561,0 -5.27342,1.36719 -7.48696,5.01301 -3.12499,5.53384 -7.55206,8.85415 -14.7135,8.85415 -10.28643,0 -16.99215,-8.46352 -16.99215,-22.7864 0,-14.12757 6.64061,-22.7864 17.05725,-22.7864 6.70571,0 11.26299,2.99478 14.71351,9.30987 1.88801,3.2552 3.84113,4.62238 7.09633,4.62238 3.90624,0 6.96613,-2.47395 6.96613,-6.5104 0,-1.17187 -0.32552,-2.53905 -0.84635,-3.90624 -3.32031,-9.70049 -14.84371,-16.66662 -28.38535,-16.66662 -20.11713,0 -33.07283,13.99736 -33.07283,36.00251 0,22.13536 13.0208,35.8072 33.20304,35.8072 z m 58.5285,18.74995 c 6.11977,0 9.7656,-3.71093 9.7656,-9.7656 v -94.53101 c 0,-6.05467 -3.64583,-9.7656 -9.7656,-9.7656 h -17.9036 c -3.77604,0 -6.24999,2.27864 -6.24999,5.98957 0,3.84114 2.47395,6.11978 6.24999,6.11978 h 12.10934 v 89.84352 h -12.10934 c -3.77604,0 -6.24999,2.27864 -6.24999,5.98957 0,3.77603 2.47395,6.11977 6.24999,6.11977 z"
       id="text2"
       style="font-weight:600;font-size:133.333px;font-family:'SF Pro Rounded';-inkscape-font-specification:'SF Pro Rounded, Semi-Bold';text-align:center;letter-spacing:0px;text-anchor:middle;white-space:pre;fill:#ffffff;stroke-width:4.02578;filter:url(#filter69)"
       aria-label="[obj c]"
       transform="matrix(1.2419966,0,0,1.2419966,85.808046,40.600173)"
       inkscape:label="objc" /></g></svg>
